# xmcd CD database file
#
# Track frame offsets:
#	182
#	11990
#	26210
#	41300
#	53272
#	68287
#	79972
#	93857
#	107637
#	120845
#	133830
#	149272
#
# Disc length: 2164 seconds
#
# Revision: 2
# Processed by: cddbd v1.4PL0 Copyright (c) Steve Scherf et al.
# Submitted via: CDex 1.40Release
#
DISCID=9008720c
DTITLE=Roy Clark - Great Picks and New Tricks
DYEAR=1993
DGENRE=
TTITLE0=If I Had To Do It All Over Again
TTITLE1=Tips Of My Fingers
TTITLE2=Something Average
TTITLE3=I Never Picked Cotton
TTITLE4=Yesterday When I Was Young
TTITLE5=Thank God And Greyhound
TTITLE6=Honeymoon Feeling
TTITLE7=I'd Fall In Love Tonight
TTITLE8=Come Live With Me
TTITLE9=Heart To Heart
TTITLE10=Somewhere Between Love And Tomorrow
TTITLE11=Another Lonely Night With You
EXTD=YEAR: 1993
EXTT0=
EXTT1=
EXTT2=
EXTT3=
EXTT4=
EXTT5=
EXTT6=
EXTT7=
EXTT8=
EXTT9=
EXTT10=
EXTT11=
PLAYORDER=
